<?xml version="1.0" encoding="UTF-8"?>
<svg width="24px" height="24px" viewBox="0 0 24 24" version="1.1" xmlns="http://www.w3.org/2000/svg">
    <g stroke="none" stroke-width="1" fill="none" fill-rule="evenodd">
        <path d="M12,2 C12.5522847,2 13,2.44771525 13,3 L13,5 C13,5.55228475 12.5522847,6 12,6 C11.4477153,6 11,5.55228475 11,5 L11,3 C11,2.44771525 11.4477153,2 12,2 Z" fill="#00B37E"/>
        <path d="M3,10 L21,10 L21,20 C21,21.1045695 20.1045695,22 19,22 L5,22 C3.8954305,22 3,21.1045695 3,20 L3,10 Z M5,12 L5,20 L19,20 L19,12 L5,12 Z" fill="#00B37E"/>
        <path d="M7,7 L17,7 C18.1045695,7 19,7.8954305 19,9 L19,10 L5,10 L5,9 C5,7.8954305 5.8954305,7 7,7 Z" fill="#00B37E"/>
        <path d="M8,13 L10,13 L10,19 L8,19 L8,13 Z M11,13 L13,13 L13,19 L11,19 L11,13 Z M14,13 L16,13 L16,19 L14,19 L14,13 Z" fill="#00B37E"/>
    </g>
</svg>
